PathFileType  4	(X/Y/Z) C:\Users\antoi\Documents\MyRepositories\mobilecap\ResultsAnalysis
DataRate	CameraRate	NumFrames	NumMarkers	Units	OrigDataRate	OrigDataStartFrame	OrigNumFrames
100.0	100.0	4	51	mm	100.0	17	133
Frame#	Time	r_knee			r_shank_antsup			r_ankle			r_calc			r_5meta			r_toe			L_knee			L_shank_antsup			L_ankle			L_calc			L_5meta			L_toe			r_sh2			r_sh3			r_sh4			L_sh2			L_sh3			r_thigh1			r_thigh2			r_thigh3			r_thigh4			r_thigh5			L_thigh1			L_thigh2			L_thigh3			L_thigh4			r.ASIS			r.PSIS			L.ASIS			L.PSIS			C7			R_Shoulder			L_Shoulder			R_Sternum			L_Sternum			R_humerus			R_elbow_med			R_elbow_lat			R_forearm			R_wrist_radius			R_wrist_ulna			L_humerus			L_elbow_med			L_elbow_lat			L_forearm			L_wrist_radius			L_wrist_ulna			R_HJC			L_HJC			R_HJC_reg			L_HJC_reg			
		X1	Y1	Z1	X2	Y2	Z2	X3	Y3	Z3	X4	Y4	Z4	X5	Y5	Z5	X6	Y6	Z6	X7	Y7	Z7	X8	Y8	Z8	X9	Y9	Z9	X10	Y10	Z10	X11	Y11	Z11	X12	Y12	Z12	X13	Y13	Z13	X14	Y14	Z14	X15	Y15	Z15	X16	Y16	Z16	X17	Y17	Z17	X18	Y18	Z18	X19	Y19	Z19	X20	Y20	Z20	X21	Y21	Z21	X22	Y22	Z22	X23	Y23	Z23	X24	Y24	Z24	X25	Y25	Z25	X26	Y26	Z26	X27	Y27	Z27	X28	Y28	Z28	X29	Y29	Z29	X30	Y30	Z30	X31	Y31	Z31	X32	Y32	Z32	X33	Y33	Z33	X34	Y34	Z34	X35	Y35	Z35	X36	Y36	Z36	X37	Y37	Z37	X38	Y38	Z38	X39	Y39	Z39	X40	Y40	Z40	X41	Y41	Z41	X42	Y42	Z42	X43	Y43	Z43	X44	Y44	Z44	X45	Y45	Z45	X46	Y46	Z46	X47	Y47	Z47	X48	Y48	Z48	X49	Y49	Z49	X50	Y50	Z50	X51	Y51	Z51	

17	0.16000000	311.39896	498.59645	-17.13742	349.50052	431.57408	-47.22559	285.20674	93.69292	-43.04219	211.95318	66.93524	-63.17496	395.63846	44.23134	-41.98224	426.52224	71.97577	-108.94988	149.38495	465.02732	-289.73437	113.21003	374.43211	-293.96339	-168.31077	233.25595	-253.58344	-216.50245	290.49399	-208.81653	-197.84635	103.05723	-253.79816	-142.76257	86.61272	-208.13844	335.58277	317.75709	-23.12751	282.44461	440.74769	2.76038	267.47987	329.32755	5.53939	67.44597	450.94104	-290.87338	-31.59384	379.57536	-288.53074	290.44391	820.18556	21.30637	318.32972	709.51779	7.18304	275.68337	675.36405	47.00537	190.61760	792.09664	63.47788	216.24312	677.91808	47.77791	159.82952	727.94634	-323.45231	180.78240	593.18540	-308.79965	67.59990	716.65944	-255.40090	89.29984	579.17293	-252.35446	264.68159	968.59662	-19.19784	61.06909	994.37120	-60.26914	224.30339	931.99839	-265.21114	36.09171	986.84263	-158.19653	55.01351	1405.13250	-125.94668	180.34755	1361.86177	36.02966	111.71814	1372.68015	-314.46830	197.17563	1368.04052	-124.23354	195.17759	1369.19725	-167.45585	190.08005	1229.96646	100.28509	86.73021	1032.87183	96.58169	128.00895	1048.38318	154.54696	184.47039	917.02833	154.14661	201.50872	784.23638	158.93776	185.44120	781.49979	192.12134	142.98104	1267.06568	-380.78853	104.30605	1027.71120	-377.45114	151.37862	1060.45194	-433.34526	232.36295	983.14993	-387.40673	307.60236	848.19565	-358.84525	310.34380	846.35829	-393.20112	188.76196	884.99592	-18.19847	149.78275	861.12224	-219.54769	197.96842	881.98842	-31.48364	156.98068	869.63484	-192.18321	
18	0.17000000	316.96927	498.17889	-16.72363	354.25411	430.51046	-46.95372	285.36387	93.66566	-43.17588	212.02975	67.05071	-63.18367	395.70481	44.13608	-41.85530	426.60485	71.65321	-108.98170	173.47396	467.05690	-291.08851	137.59534	376.98101	-294.95321	-145.26090	240.04726	-253.52344	-194.18156	295.92969	-207.58993	-173.42330	110.19266	-257.00942	-118.53208	93.07919	-211.39374	339.09748	316.89776	-23.04149	287.61004	440.48523	3.35324	271.23757	329.27078	6.04983	92.79669	454.02891	-291.78304	-7.16069	383.90980	-289.20929	300.60540	820.01200	22.05623	326.84201	709.05712	7.94959	283.98961	675.62393	47.65090	200.41773	793.47129	64.18362	224.52324	678.91655	48.36453	175.36593	729.54329	-323.17036	200.44630	595.34940	-309.58838	84.49553	715.14743	-253.97265	110.29759	578.72362	-251.61467	276.11577	969.65071	-18.42429	72.56670	995.80390	-59.77438	235.98227	932.96331	-264.56751	47.54165	987.86714	-157.75758	66.99525	1406.59370	-125.30181	192.92605	1363.06839	36.17271	122.82053	1373.90309	-314.07518	209.05251	1369.13576	-124.06898	206.93106	1370.32949	-167.31349	203.53802	1231.19551	100.19006	100.97267	1033.58234	97.57017	142.84086	1049.27331	155.08842	199.73506	918.19060	154.29406	217.45228	785.51382	159.19675	201.42404	782.73768	192.25582	153.03313	1268.00288	-380.53883	112.88528	1028.89493	-376.76913	159.72682	1061.27242	-432.81669	240.30655	983.24248	-387.47375	314.46616	847.58357	-359.53643	317.02460	845.77373	-393.87737	200.09087	886.18212	-17.48342	161.30460	862.14816	-218.85273	209.31312	883.64501	-30.40234	168.26902	870.62783	-191.10703	
19	0.18000000	321.99987	497.82476	-16.26344	358.53967	429.57334	-46.57311	285.50257	93.68975	-43.25330	212.09605	67.16201	-63.18136	395.76526	44.05609	-41.74024	426.70485	71.40444	-108.98423	197.45809	469.71678	-292.11872	162.15151	379.95281	-295.59068	-121.20465	245.98179	-253.19135	-171.75074	299.76210	-206.20278	-146.51611	116.43148	-260.66764	-92.04926	98.99570	-214.74777	342.16782	316.13327	-22.84405	292.17858	440.25335	3.93665	274.48952	329.24298	6.51986	117.96418	457.36560	-292.51693	17.43337	388.00769	-289.79082	310.53164	819.89399	22.71246	334.87600	708.58047	8.63434	291.89629	675.91201	48.24748	209.96631	794.92505	64.84443	232.44568	679.98644	48.89728	190.93124	731.56771	-322.82363	220.07283	598.05697	-310.18558	101.31412	714.12993	-252.68247	131.27117	578.79323	-250.87199	287.30958	970.71549	-17.72694	83.91536	997.35130	-59.29155	247.56579	934.19747	-264.04594	58.90194	989.18570	-157.32983	78.83587	1408.22480	-124.78192	205.27147	1364.44367	36.23188	133.78870	1375.26550	-313.79425	220.73042	1370.40308	-124.01319	218.53948	1371.63776	-167.27683	216.79219	1232.59125	99.98573	115.27340	1034.33112	98.41550	157.67504	1050.24704	155.47622	215.15775	919.52280	154.28984	233.70084	786.98320	159.32932	217.85735	784.20325	192.29628	162.88400	1269.07806	-380.39822	121.20034	1030.26104	-376.09441	167.74338	1062.24915	-432.36812	247.93310	983.43801	-387.70580	320.93711	847.00747	-360.48844	323.20858	845.23157	-394.83497	211.21367	887.39662	-16.91475	172.64574	863.45273	-218.33775	220.42372	885.25643	-29.57548	179.41211	871.86784	-190.31787	
20	0.19000000	326.50797	497.53585	-15.73654	362.39266	428.77614	-46.04087	285.61704	93.75341	-43.28888	212.15493	67.25826	-63.17526	395.82075	43.98673	-41.63457	426.81493	71.21431	-108.96302	221.31388	472.91033	-292.82217	186.84121	383.25372	-295.94046	-96.29241	250.80879	-252.77223	-148.91212	302.05475	-204.77640	-117.93974	121.57379	-264.51695	-63.98022	104.02254	-218.17372	344.77117	315.46937	-22.49490	296.14614	440.07579	4.50172	277.20794	329.26641	6.93136	142.86489	460.82651	-293.07253	42.14313	391.69651	-290.25954	320.23229	819.81402	23.30781	342.51368	708.09006	9.26261	299.41130	676.21116	48.81006	219.27473	796.43991	65.45004	240.00743	681.12580	49.37023	206.60202	734.00254	-322.43226	239.69725	601.27433	-310.57246	118.02817	713.57940	-251.63422	152.14100	579.33643	-250.28278	298.32892	971.85963	-17.07850	95.13870	999.00851	-58.84696	259.09157	935.76616	-263.60138	70.19723	990.79685	-156.93749	90.55369	1410.02326	-124.38414	217.37482	1366.00769	36.22381	144.65282	1376.77870	-313.60717	232.23616	1371.85059	-124.05354	230.02470	1373.12388	-167.34065	229.82207	1234.17214	99.70696	129.63449	1035.13732	99.06738	172.48919	1051.31643	155.69172	230.72583	921.04389	154.12407	250.17660	788.63834	159.31316	234.67697	785.89611	192.22448	172.58531	1270.30898	-380.34561	129.25503	1031.83658	-375.41260	175.46044	1063.40099	-432.00245	255.26548	983.75234	-388.09033	327.02727	846.48912	-361.66948	328.91527	844.74142	-396.04412	222.18698	888.68602	-16.48294	183.88983	865.06843	-217.99636	231.38030	886.85973	-28.97670	190.49202	873.39737	-189.78426	
